<?xml version="1.0" standalone="no"?>
<!DOCTYPE svg PUBLIC "-//W3C//DTD SVG 20010904//EN"
 "http://www.w3.org/TR/2001/REC-SVG-20010904/DTD/svg10.dtd">
<svg version="1.0" xmlns="http://www.w3.org/2000/svg"
 width="700.000000pt" height="700.000000pt" viewBox="0 0 700.000000 700.000000"
 preserveAspectRatio="xMidYMid meet">
<metadata>
Created by potrace 1.14, written by Peter Selinger 2001-2017
</metadata>
<g transform="translate(0.000000,700.000000) scale(0.100000,-0.100000)"
fill="#000000" stroke="none">
<path d="M3367 6814 c-1 -1 -49 -4 -107 -8 -58 -3 -121 -8 -140 -11 -76 -10
-186 -27 -210 -31 -14 -3 -38 -7 -55 -10 -85 -15 -316 -78 -435 -120 -210 -73
-441 -180 -607 -280 -17 -10 -53 -32 -80 -48 -26 -16 -95 -63 -153 -105 -654
-468 -1107 -1135 -1300 -1911 -16 -63 -31 -131 -34 -150 -3 -19 -10 -57 -15
-85 -5 -27 -12 -74 -16 -104 -4 -30 -8 -62 -10 -71 -16 -85 -24 -536 -11 -655
25 -226 48 -363 92 -540 23 -93 75 -263 94 -310 4 -11 25 -63 45 -115 66 -167
166 -361 279 -540 43 -69 184 -266 226 -314 164 -193 368 -396 490 -486 18
-14 38 -30 44 -35 41 -38 242 -175 356 -243 344 -204 826 -376 1165 -417 28
-4 57 -8 65 -10 108 -28 807 -27 910 0 8 2 35 7 60 10 361 47 877 236 1200
439 64 41 185 120 195 128 6 5 44 34 85 65 214 161 455 395 590 573 14 18 30
38 35 44 24 25 136 189 199 289 63 101 169 302 208 392 9 22 26 63 38 90 35
81 99 272 130 385 24 89 36 140 65 281 2 9 6 40 10 69 4 29 8 62 11 73 15 80
19 170 19 437 0 299 -4 369 -26 500 -6 36 -12 74 -14 85 -1 11 -6 38 -10 60
-4 22 -9 47 -10 55 -20 110 -102 378 -163 535 -94 243 -256 532 -421 752 -100
133 -123 161 -221 267 -435 473 -995 808 -1611 967 -66 17 -132 33 -147 35
-15 2 -47 8 -72 14 -25 5 -65 12 -90 15 -25 4 -58 9 -75 12 -78 13 -271 25
-441 27 -75 0 -136 0 -137 0z"/>
</g>
</svg>
